HIERARCHY
ROOT Hips
{
	OFFSET 0.000000 0.000000 0.000000 
	CHANNELS 6 Xposition Yposition Zposition Zrotation Yrotation Xrotation
	JOINT LeftUpLeg
	{
		OFFSET 1.363060 -1.794630 0.839290 
		CHANNELS 3 Zrotation Yrotation Xrotation
		JOINT LeftLeg
		{
			OFFSET 2.448110 -6.726130 0.000000 
			CHANNELS 3 Zrotation Yrotation Xrotation
			JOINT LeftFoot
			{
				OFFSET 2.562200 -7.039590 0.000000 
				CHANNELS 3 Zrotation Yrotation Xrotation
				JOINT LeftToeBase
				{
					OFFSET 0.157640 -0.433110 2.322550 
					CHANNELS 3 Zrotation Yrotation Xrotation
					End Site
					{
						OFFSET 0.000000 0.000000 0.000000 
					}
				}
			}
		}
	}
	JOINT RightUpLeg
	{
		OFFSET -1.305520 -1.794630 0.839290 
		CHANNELS 3 Zrotation Yrotation Xrotation
		JOINT RightLeg
		{
			OFFSET -2.542530 -6.985550 0.000000 
			CHANNELS 3 Zrotation Yrotation Xrotation
			JOINT RightFoot
			{
				OFFSET -2.568260 -7.056230 0.000000 
				CHANNELS 3 Zrotation Yrotation Xrotation
				JOINT RightToeBase
				{
					OFFSET -0.164730 -0.452590 2.363150 
					CHANNELS 3 Zrotation Yrotation Xrotation
					End Site
					{
						OFFSET 0.000000 0.000000 0.000000 
					}
				}
			}
		}
	}
	JOINT Spine
	{
		OFFSET 0.028270 2.035590 -0.193380 
		CHANNELS 3 Zrotation Yrotation Xrotation
		JOINT Spine1
		{
			OFFSET 0.056720 2.048850 -0.042750 
			CHANNELS 3 Zrotation Yrotation Xrotation
			JOINT Neck1
			{
				OFFSET -0.054170 1.746240 0.172020 
				CHANNELS 3 Zrotation Yrotation Xrotation
				JOINT Head
				{
					OFFSET 0.104070 1.761360 -0.123970 
					CHANNELS 3 Zrotation Yrotation Xrotation
					End Site
					{
						OFFSET 0.000000 0.000000 0.000000 
					}
				}
			}
			JOINT LeftArm
			{
				OFFSET 3.362410 1.200890 -0.311210 
				CHANNELS 3 Zrotation Yrotation Xrotation
				JOINT LeftForeArm
				{
					OFFSET 4.983000 -0.000000 -0.000000 
					CHANNELS 3 Zrotation Yrotation Xrotation
					JOINT LeftHand
					{
						OFFSET 3.483560 -0.000000 -0.000000 
						CHANNELS 3 Zrotation Yrotation Xrotation
						JOINT LeftHandIndex1
						{
							OFFSET 0.715260 -0.000000 -0.000000 
							CHANNELS 3 Zrotation Yrotation Xrotation
							End Site
							{
								OFFSET 0.000000 0.000000 0.000000 
							}
						}
					}
				}
			}
			JOINT RightArm
			{
				OFFSET -3.136600 1.374050 -0.404650 
				CHANNELS 3 Zrotation Yrotation Xrotation
				JOINT RightForeArm
				{
					OFFSET -5.241900 -0.000000 -0.000000 
					CHANNELS 3 Zrotation Yrotation Xrotation
					JOINT RightHand
					{
						OFFSET -3.444170 -0.000000 -0.000000 
						CHANNELS 3 Zrotation Yrotation Xrotation
						JOINT RightHandIndex1
						{
							OFFSET -0.622530 -0.000000 -0.000000 
							CHANNELS 3 Zrotation Yrotation Xrotation
							End Site
							{
								OFFSET 0.000000 0.000000 0.000000 
							}
						}
					}
				}
			}
		}
	}
}
MOTION
Frames: 13
Frame Time: 0.041667
10.328327 16.175928 26.076709 -176.258076 1.961839 -168.036991 -15.744599 -15.669618 -29.425593 7.358509 19.215303 57.013671 3.169034 -0.654839 -24.600425 2.793000 -10.352200 -30.125100 30.856821 19.631822 -26.444704 -5.910790 -18.858768 56.037006 0.742810 -17.706725 -32.106353 -0.103200 -2.071100 5.702100 3.599496 2.103092 6.328034 -5.853497 0.923187 -17.795962 15.510211 -1.903241 -3.183209 3.130300 -1.636300 0.505000 -92.018105 2.844139 16.271149 18.209281 -16.644987 -3.466193 1.873147 0.476932 32.924509 -7.125000 0.000000 0.000000 89.635766 -0.636628 31.240803 -17.482024 19.109955 -4.287591 0.430900 -0.765082 35.255000 7.125000 0.000000 0.000000 
10.334113 16.205781 26.000109 -176.274254 1.933914 -168.177084 -15.886131 -15.221093 -28.660266 7.039713 18.926136 56.099015 3.118798 -0.447936 -24.540649 2.930000 -10.580800 -30.878900 30.929790 19.065347 -25.793278 -5.678447 -18.601595 55.287649 0.784771 -17.583197 -31.793618 -0.103300 -2.072600 5.706300 3.761069 2.055201 7.068425 -5.738639 0.952378 -17.292188 15.535691 -1.938388 -3.073376 3.159200 -1.640300 0.649300 -92.114303 2.242861 15.799913 17.973734 -16.345390 -3.377708 1.895528 0.456621 34.638608 -7.125000 0.000000 0.000000 89.591866 -0.125643 30.686898 -17.265791 18.824676 -4.233936 0.424474 -0.781046 36.527826 7.125000 0.000000 0.000000 
10.339319 16.261900 25.909046 -176.285424 1.724733 -168.478805 -16.068571 -14.821105 -27.617019 6.607106 18.553666 54.951903 2.841193 0.354712 -24.220765 3.299000 -11.164100 -32.835200 31.038266 18.218443 -24.805496 -5.352959 -18.223355 54.223942 0.819739 -17.394861 -31.446368 -0.098800 -2.026800 5.579900 4.047816 1.820551 7.808181 -5.569320 0.894459 -16.785157 15.356993 -1.940762 -2.764086 3.084100 -1.609500 0.823700 -92.343023 1.800566 15.187386 17.765029 -16.072300 -3.283494 1.927197 0.404260 36.442907 -7.125000 0.000000 0.000000 89.573015 0.168086 30.448650 -17.093960 18.600237 -4.197486 0.413910 -0.797416 37.816454 7.125000 0.000000 0.000000 
10.342096 16.337921 25.799469 -176.213507 1.544909 -168.716754 -16.193446 -14.412807 -26.308006 6.129827 18.119838 53.591745 2.641701 0.794004 -23.723073 3.400000 -11.316000 -33.353200 31.252756 17.267634 -23.453256 -4.937123 -17.744230 52.853795 0.898336 -17.252217 -30.951041 -0.081400 -1.840000 5.063700 4.353258 1.734748 6.107054 -5.456197 0.805674 -17.279989 14.892130 -2.143290 -1.359451 2.844200 -1.581000 1.199400 -92.668013 3.004859 15.160758 17.823205 -16.096768 -3.282569 1.936977 0.355893 37.451441 -7.125000 0.000000 0.000000 89.819081 -0.929428 30.481679 -16.952419 18.411371 -4.162129 0.393480 -0.796174 38.794178 7.125000 0.000000 0.000000 
10.340477 16.425975 25.680520 -176.158630 1.587089 -169.361476 -16.313257 -13.922776 -24.674031 5.630098 17.581849 52.024933 2.569290 0.744251 -23.051592 3.189200 -10.995200 -32.263600 31.459256 16.267613 -21.687504 -4.450483 -17.129469 51.185571 1.061005 -17.266089 -30.259600 -0.043100 -1.339200 3.682700 4.382734 1.663928 6.784884 -5.396551 0.791318 -16.938346 14.565242 -2.325475 -0.813585 2.687500 -1.620300 1.427800 -92.727412 3.202359 16.057695 17.945585 -16.198966 -3.302113 1.937213 0.319157 37.710386 -7.125000 0.000000 0.000000 89.892388 -0.937824 30.929224 -16.826616 18.258231 -4.158200 0.387351 -0.790346 38.956101 7.125000 0.000000 0.000000 
10.346609 16.525370 25.587027 -176.265718 1.108508 -169.946903 -16.427637 -13.823884 -23.067768 5.062449 17.008416 50.239328 2.428002 0.721109 -22.019497 3.135800 -10.911800 -31.982800 31.462952 14.803965 -20.147293 -3.910750 -16.459365 49.294745 1.273179 -17.327371 -29.406592 -0.020300 -0.920200 2.529300 4.641331 1.399000 7.091612 -5.229542 0.699858 -16.782273 14.550415 -2.518212 -0.042707 2.692700 -1.639300 1.719200 -92.932911 3.280710 16.978243 17.896390 -16.086812 -3.272650 1.941034 0.293243 38.163161 -7.125000 0.000000 0.000000 89.778594 -1.103684 31.809995 -16.775279 18.207242 -4.180382 0.384732 -0.783458 38.574698 7.125000 0.000000 0.000000 
10.353089 16.640153 25.479302 -176.353229 0.694494 -170.457480 -16.508791 -13.588692 -21.366721 4.422298 16.352803 48.196489 2.247629 0.768952 -20.817287 3.088400 -10.836800 -31.731600 31.439302 13.329198 -18.459219 -3.314316 -15.692187 47.107749 1.402262 -16.957517 -28.296501 -0.029400 -1.106300 3.041300 4.837572 1.181486 6.860188 -5.088734 0.610063 -16.644362 14.655726 -2.620561 0.825092 2.737800 -1.603400 1.987600 -93.187028 3.517542 17.546655 17.749781 -15.857009 -3.216637 1.954146 0.260747 39.059548 -7.125000 0.000000 0.000000 89.830378 -1.671208 32.446488 -16.794013 18.232106 -4.206874 0.387759 -0.785900 38.452822 7.125000 0.000000 0.000000 
10.360841 16.771830 25.363592 -176.334591 0.390991 -170.888443 -16.482700 -13.209605 -19.660779 3.757607 15.643774 46.004942 2.047403 0.777247 -19.309162 3.000100 -10.695200 -31.258700 31.489971 11.930548 -16.673846 -2.699525 -14.869279 44.752329 1.528077 -16.459952 -26.912025 -0.044400 -1.359900 3.739800 5.026040 1.077831 5.901449 -4.992428 0.513287 -16.643015 14.677821 -2.759700 1.857711 2.731000 -1.574700 2.238200 -93.461875 4.209082 17.729024 17.711008 -15.756964 -3.184404 1.957800 0.222694 40.686908 -7.125000 0.000000 0.000000 90.040319 -2.669946 32.889116 -16.832137 18.273606 -4.230881 0.391336 -0.793027 38.629718 7.125000 0.000000 0.000000 
10.348345 16.923641 25.196971 -176.190658 1.159831 -172.051339 -16.694938 -11.918317 -17.185710 3.103044 14.793233 43.767038 1.790100 0.975545 -17.733862 2.884000 -10.504900 -30.627700 31.600189 10.841715 -13.699195 -2.087783 -13.863271 42.176425 1.835513 -16.343536 -24.931751 -0.011700 -0.697500 1.916700 5.172779 1.443039 5.633888 -5.098553 0.679354 -16.729123 14.460549 -2.945941 3.011786 2.638600 -1.566400 2.504600 -93.850317 5.223712 17.666999 17.834148 -15.880585 -3.204046 1.946800 0.201763 42.763818 -7.125000 0.000000 0.000000 90.204369 -3.857368 33.489539 -16.803091 18.222079 -4.235191 0.388904 -0.805157 39.091079 7.125000 0.000000 0.000000 
10.356560 17.082394 25.084386 -176.227128 1.275035 -172.359465 -16.750547 -11.219902 -15.670665 2.415058 13.992259 41.353264 1.440546 1.115564 -15.221264 2.736400 -10.255600 -29.808400 31.490984 9.870708 -11.873135 -1.449243 -12.929764 39.444364 2.382769 -16.775589 -22.189364 0.000000 0.039400 -0.108400 5.548515 1.516238 5.047864 -4.926619 0.729304 -16.359365 14.029377 -3.067387 3.864262 2.484600 -1.561000 2.686000 -94.084377 5.780238 17.764414 17.999318 -16.029931 -3.235081 1.939375 0.174796 44.455080 -7.125000 0.000000 0.000000 90.198227 -4.680173 34.024849 -16.769488 18.151005 -4.229881 0.379339 -0.822942 40.019100 7.125000 0.000000 0.000000 
10.369057 17.261512 24.952246 -176.395152 0.505860 -173.206487 -16.845104 -11.157910 -13.469670 1.746604 13.112387 38.876177 1.051659 1.320147 -12.256647 2.760000 -10.295900 -29.940500 31.505086 8.252633 -9.517420 -0.896044 -11.918884 36.793888 2.892266 -17.315345 -19.511827 -0.003500 0.380900 -1.046600 5.619217 1.120468 4.846864 -4.706973 0.519499 -16.167042 13.990432 -3.143253 4.801742 2.485400 -1.523700 2.887800 -94.157928 6.323509 17.766940 18.116467 -16.153565 -3.269232 1.953308 0.102233 45.784895 -7.125000 0.000000 0.000000 90.268801 -5.615415 34.595004 -16.780036 18.147755 -4.232730 0.369202 -0.843626 41.140987 7.125000 0.000000 0.000000 
10.368362 17.463078 24.772202 -176.529609 0.618439 -174.437942 -17.161813 -10.707787 -10.883613 1.148618 12.213754 36.553788 0.526375 2.079625 -9.412311 2.989300 -10.677700 -31.200500 31.457564 7.229930 -6.601883 -0.471637 -10.939318 34.411031 3.358349 -17.748607 -16.307617 -0.015000 0.791200 -2.174600 5.461383 1.049456 5.465598 -4.640822 0.509544 -15.673695 14.133696 -3.171150 5.599262 2.557700 -1.476200 3.052500 -94.206619 6.840826 17.701865 18.305012 -16.399625 -3.355664 1.982749 0.012987 46.305497 -7.125000 0.000000 0.000000 90.339720 -6.393701 35.531454 -16.974796 18.390747 -4.302358 0.396856 -0.857309 40.373071 7.125000 0.000000 0.000000 
10.375536 17.689058 24.637979 -176.609486 0.556539 -175.052914 -17.307703 -10.697325 -8.965680 0.586831 11.385238 34.245590 -0.038735 2.984178 -5.863380 3.239600 -11.073200 -32.527100 31.464610 6.753074 -4.544041 -0.112572 -10.147437 32.268012 3.862945 -18.470721 -12.418610 -0.010700 0.666600 -1.831900 5.419092 0.972815 4.687671 -4.551698 0.444075 -15.511817 13.966152 -3.229527 6.554100 2.505700 -1.445900 3.202100 -94.255806 7.644120 17.776548 18.585055 -16.738473 -3.472375 2.000183 -0.054363 45.517203 -7.125000 0.000000 0.000000 90.557055 -7.339552 35.933196 -17.142567 18.598929 -4.358112 0.418055 -0.861229 39.669196 7.125000 0.000000 0.000000 
